<?xml version="1.0" encoding="iso-8859-1"?>
<!-- Source: https://www.flaticon.com/free-icon/amphora_524133#term=amphora&page=1&position=13 -->
<svg version="1.1" id="Capa_1" xmlns="http://www.w3.org/2000/svg" xmlns:xlink="http://www.w3.org/1999/xlink" x="0px" y="0px"
	 viewBox="0 0 512 512" style="enable-background:new 0 0 512 512;" xml:space="preserve">
<!-- Partie gauche de l'arche de l'amphore -->
<path style="fill:#FE8944;" d="M147.273,180.456c-37.847-6.788-65.316-39.658-65.316-78.159c0-43.786,35.622-79.408,79.408-79.408
	c20.71,0,40.313,7.927,55.196,22.32l-20.855,21.565c-9.259-8.954-21.455-13.886-34.341-13.886
	c-27.244,0-49.408,22.165-49.408,49.408c0,23.958,17.08,44.41,40.611,48.63L147.273,180.456z"/>
<!-- Partie droite de l'arche de l'amphore -->
<path style="fill:#FE8944;" d="M364.726,180.456l-5.295-29.529c23.532-4.219,40.612-24.671,40.612-48.63
	c0-27.244-22.164-49.408-49.408-49.408c-12.886,0-25.082,4.932-34.342,13.887l-20.855-21.565
	c14.884-14.394,34.486-22.321,55.197-22.321c43.786,0,79.408,35.623,79.408,79.408C430.043,140.798,402.573,173.669,364.726,180.456
	z"/>
<!-- Partie droite claire de la tête de l'amphore -->
<polygon style="fill:#FFD3A1;" points="235.984,157.296 313.573,137.28 321.128,48.905 235.984,28.889 "/>
<!-- Partie gauche claire de la tête de l'amphore -->
<polygon style="fill:#FFD3A1;" points="256,28.889 190.872,48.905 198.426,137.28 256,157.296 "/>
<!-- Partie droite foncée de la tête de l'amphore -->
<polygon style="fill:#FEB158;" points="321.128,48.905 325.308,0 256,0 235.984,22.888 256,48.905 "/>
<!-- Partie gauche foncée de la tête de l'amphore -->
<polygon style="fill:#FEB158;" points="256,0 186.692,0 190.872,48.905 256,48.905 "/>
<!-- Partie droite de l'amphore -->
<path style="fill:#FEB158;" d="M328.552,137.28h-14.979H256L235.984,321L256,512h96.042l19.715-113.513l-6.751-13.26l12.266-18.494
	l16.652-95.876l-6.544-16.192l11.691-13.441l2.897-16.678C409.882,178.976,374.803,137.28,328.552,137.28z"/>
<!-- Partie gauche de l'amphore -->
<path style="fill:#FEB158;" d="M198.426,137.28h-14.979c-46.251,0-81.33,41.696-73.415,87.265l2.894,16.663l12.193,13.86
	l-7.04,15.809l16.648,95.852l11.565,16.897l-6.052,14.842L159.958,512H256V137.28H198.426z"/>
<!-- Rainures droites de l'amphore -->
<g>
	<!-- En haut -->
	<path style="fill:#FFEBAE;" d="M343.089,254.076c-7.248,5.279-12.036,8.767-23.137,8.767s-15.89-3.488-23.138-8.768
		c-8.88-6.468-19.932-14.518-40.799-14.518c-0.005,0-0.01,0-0.016,0L245.992,256L256,269.558c0.005,0,0.01,0,0.016,0
		c11.1,0,15.889,3.488,23.137,8.767c8.88,6.468,19.932,14.518,40.8,14.518s31.919-8.05,40.8-14.518
		c7.247-5.279,12.035-8.767,23.135-8.767c4.089,0,7.292,0.474,10.037,1.3l5.145-29.624c-4.365-1.016-9.385-1.675-15.182-1.675
		C363.02,239.558,351.968,247.607,343.089,254.076z"/>
	<!-- En bas -->
	<path style="fill:#FFEBAE;" d="M319.952,389.73c-11.101,0-15.89-3.488-23.138-8.767c-8.88-6.468-19.932-14.518-40.799-14.518
		c-0.005,0-0.01,0-0.016,0l-10.008,15.221L256,396.446c0.005,0,0.01,0,0.016,0c11.1,0,15.889,3.488,23.137,8.767
		c8.88,6.468,19.932,14.518,40.8,14.518s31.919-8.05,40.799-14.518c3.924-2.858,7.132-5.183,11.005-6.722l5.515-31.753
		c-16.682,1.488-26.292,8.479-34.182,14.226C335.841,386.242,331.053,389.73,319.952,389.73z"/>
</g>
<!-- Rainures gauches de l'amphore -->
<g>
	<!-- En haut -->
	<path style="fill:#FFEBAE;" d="M151.283,278.325c8.88,6.468,19.931,14.518,40.798,14.518c20.868,0,31.919-8.05,40.8-14.518
		c7.244-5.277,12.031-8.763,23.119-8.767v-30c-20.857,0.004-31.905,8.051-40.782,14.518c-7.248,5.279-12.036,8.767-23.137,8.767
		c-11.099,0-15.887-3.488-23.134-8.767c-8.88-6.469-19.932-14.519-40.799-14.519c-5.82,0-10.837,0.643-15.22,1.661l5.151,29.66
		c2.775-0.84,5.996-1.32,10.069-1.32C139.248,269.558,144.036,273.045,151.283,278.325z"/>
	<!-- En bas -->
	<path style="fill:#FFEBAE;" d="M192.081,419.73c20.868,0,31.919-8.05,40.799-14.518c7.245-5.276,12.032-8.763,23.12-8.766v-30
		c-20.857,0.004-31.905,8.051-40.782,14.517c-7.248,5.279-12.036,8.767-23.137,8.767c-11.099,0-15.887-3.488-23.134-8.767
		c-7.896-5.751-17.515-12.748-34.219-14.23l5.513,31.741c3.89,1.539,7.106,3.871,11.042,6.738
		C160.163,411.68,171.215,419.73,192.081,419.73z"/>
</g>
</svg>
