<?xml version="1.0" encoding="iso-8859-1"?>
<!-- Source: https://www.flaticon.com/free-icon/chest_909482 -->
<svg version="1.1" id="Capa_1" xmlns="http://www.w3.org/2000/svg" xmlns:xlink="http://www.w3.org/1999/xlink" x="0px" y="0px"
	 viewBox="0 0 512 512" style="enable-background:new 0 0 512 512;" xml:space="preserve">
<path style="fill:#B76035;" d="M511.766,277.193H0v-92.481c0-44.625,36.176-80.801,80.801-80.801h350.164
	c44.625,0,80.801,36.176,80.801,80.801V277.193z"/>
<path style="fill:#A04C27;" d="M511.763,184.716v92.478h-21.255v-92.478c0-44.625-36.179-80.803-80.803-80.803h21.266
	C475.595,103.912,511.763,140.091,511.763,184.716z"/>
<path style="fill:#B76035;" d="M506.61,467.679H5.157c-2.848,0-5.157-2.309-5.157-5.157V277.193h511.766v185.329
	C511.766,465.37,509.458,467.679,506.61,467.679z"/>
<path style="fill:#FFDBA9;" d="M0,462.522V277.193h42.986v190.486H5.157C2.309,467.679,0,465.37,0,462.522z"/>
<rect x="21.496" y="277.19" style="fill:#FFC473;" width="21.493" height="190.48"/>
<path style="fill:#FFDBA9;" d="M469.012,467.679V277.193h42.986v185.329c0,2.848-2.309,5.157-5.157,5.157H469.012z"/>
<path style="fill:#FFC473;" d="M512,277.4v185.121c0,2.846-2.31,5.157-5.157,5.157h-16.336V277.4H512z"/>
<rect x="42.986" y="277.19" style="fill:#FFDBA9;" width="160.18" height="42.986"/>
<rect x="177.81" y="277.19" style="fill:#FFC473;" width="25.356" height="42.986"/>
<path style="fill:#FFDBA9;" d="M274.202,363.166h-36.638c-18.996,0-34.396-15.399-34.396-34.396v-51.577h105.429v51.577
	C308.598,347.766,293.198,363.166,274.202,363.166z"/>
<path style="fill:#FFC473;" d="M308.594,277.194v51.576c0,18.997-15.398,34.394-34.394,34.394h-20.193
	c18.997,0,34.394-15.397,34.394-34.394v-51.576H308.594z"/>
<rect x="308.6" y="277.19" style="fill:#FFDBA9;" width="160.41" height="42.986"/>
<rect x="443.66" y="277.19" style="fill:#FFC473;" width="25.356" height="42.986"/>
<path style="fill:#FF961D;" d="M0,392.375c0,0,71.965,7.295,77.466,75.304H5.157c-2.848,0-5.157-2.309-5.157-5.157V392.375z"/>
<path style="fill:#EF8318;" d="M77.466,467.678H54.178c-11.221-36.498-36.312-49.854-54.174-54.474v-20.832
	C0.004,392.371,71.969,399.673,77.466,467.678z"/>
<path style="fill:#FF961D;" d="M511.999,392.375c0,0-71.965,7.295-77.466,75.304h72.309c2.848,0,5.157-2.309,5.157-5.157V392.375z"
	/>
<path style="fill:#EF8318;" d="M434.533,467.678h21.801c11.221-36.498,37.798-49.854,55.661-54.474v-20.832
	C511.995,392.371,440.03,399.673,434.533,467.678z"/>
<path style="fill:#FF961D;" d="M457.815,277.169c-7.404-17.844,6.287-44.267-7.526-59.12
	c-13.951-15.001-50.388-12.924-69.557-23.841c-18.979-10.809-27.638-38.629-50.44-44.423c-22-5.59-49.801,12.752-74.183,12.752
	s-52.183-18.342-74.184-12.751c-22.801,5.794-31.46,33.614-50.439,44.423c-19.169,10.917-55.606,8.84-69.557,23.841
	c-13.813,14.853-0.123,41.277-7.526,59.121L457.815,277.169z"/>
<path style="fill:#EF8318;" d="M457.814,277.164h-31.321c-1.763-17.481,8.23-27.777-3.826-40.73
	c-14.418-15.511-52.37-19.138-72.192-30.42c-19.616-11.169-30.053-45.368-53.618-51.36c-0.918-0.237-1.856-0.423-2.795-0.577
	c12.757-3.888,25.226-7.085,36.23-4.29c22.802,5.796,31.465,33.611,50.442,44.419c19.172,10.922,55.608,8.838,69.552,23.844
	C464.105,232.9,450.409,259.322,457.814,277.164z"/>
<g>
	<path style="fill:#D5F0F7;" d="M93.382,171.17c-2.467,0-4.892-1.177-6.391-3.367l-20.11-29.391
		c-2.412-3.526-1.51-8.339,2.016-10.752c3.526-2.413,8.339-1.51,10.752,2.016l20.11,29.391c2.412,3.526,1.51,8.339-2.016,10.752
		C96.408,170.732,94.886,171.17,93.382,171.17z"/>
	<path style="fill:#D5F0F7;" d="M164.535,127.858c-3.048,0-5.937-1.813-7.162-4.808l-27.844-68.063
		c-1.617-3.954,0.276-8.47,4.23-10.088c3.957-1.618,8.471,0.277,10.088,4.23l27.844,68.063c1.617,3.954-0.276,8.47-4.23,10.088
		C166.502,127.672,165.51,127.858,164.535,127.858z"/>
	<path style="fill:#D5F0F7;" d="M418.384,171.17c-1.505,0-3.025-0.438-4.361-1.352c-3.526-2.413-4.428-7.226-2.016-10.752
		l20.11-29.391c2.412-3.525,7.226-4.426,10.752-2.016c3.526,2.413,4.428,7.226,2.016,10.752l-20.11,29.391
		C423.276,169.992,420.852,171.17,418.384,171.17z"/>
	<path style="fill:#D5F0F7;" d="M347.231,127.858c-0.975,0-1.967-0.186-2.926-0.578c-3.954-1.617-5.847-6.133-4.23-10.088
		l27.845-68.063c1.617-3.953,6.133-5.847,10.088-4.23c3.954,1.617,5.847,6.134,4.23,10.088l-27.844,68.063
		C353.168,126.045,350.279,127.858,347.231,127.858z"/>
	<path style="fill:#D5F0F7;" d="M255.883,117.801c-4.272,0-7.735-3.463-7.735-7.735V62.113c0-4.272,3.463-7.735,7.735-7.735
		s7.735,3.463,7.735,7.735v47.954C263.618,114.338,260.155,117.801,255.883,117.801z"/>
	<path style="fill:#D5F0F7;" d="M270.254,314.444c0-7.937-6.434-14.371-14.371-14.371c-7.937,0-14.371,6.434-14.371,14.371
		c0,4.21,1.821,7.985,4.706,10.613v5.564c0,5.316,4.349,9.665,9.665,9.665s9.665-4.349,9.665-9.665v-5.564
		C268.433,322.428,270.254,318.653,270.254,314.444z"/>
</g>
<g>
</g>
<g>
</g>
<g>
</g>
<g>
</g>
<g>
</g>
<g>
</g>
<g>
</g>
<g>
</g>
<g>
</g>
<g>
</g>
<g>
</g>
<g>
</g>
<g>
</g>
<g>
</g>
<g>
</g>
</svg>
