<?xml version="1.0" encoding="iso-8859-1"?>
<!-- Source: https://www.flaticon.com/free-icon/crown_761948#term=king%20queen&page=1&position=55 -->
<svg version="1.1" id="Capa_1" xmlns="http://www.w3.org/2000/svg" xmlns:xlink="http://www.w3.org/1999/xlink" x="0px" y="0px"
	 viewBox="0 0 512 512" style="enable-background:new 0 0 512 512;" xml:space="preserve">
<path style="fill:#FFE269;" d="M329.246,212.686l-62.891-85.798c-5.131-6.999-15.583-6.999-20.713,0l-62.891,85.799
	c-16.428,22.412-47.564,27.964-70.727,12.613l-69.129-45.816c-8.536-5.657-19.935,0.463-19.935,10.704V388.09h233.038h233.038
	V190.186c0-10.24-11.399-16.361-19.935-10.704l-69.129,45.816C376.81,240.65,345.674,235.097,329.246,212.686z"/>
<circle style="fill:#E84661;" cx="134.29" cy="300.142" r="26.2"/>
<path style="fill:#F7D443;" d="M489.037,190.183v197.902H462.84V190.183c0-2.087-0.475-4.01-1.302-5.684l7.565-5.012
	C477.638,173.824,489.037,179.942,489.037,190.183z"/>
<path style="fill:#CE1D4C;" d="M160.489,300.14c0,14.468-11.73,26.197-26.198,26.197c-9.322,0-17.517-4.878-22.146-12.215
	c1.622,0.32,3.286,0.486,5.002,0.486c14.468,0,26.197-11.73,26.197-26.198c0-5.136-1.478-9.931-4.041-13.982
	C151.374,276.764,160.489,287.388,160.489,300.14z"/>
<circle style="fill:#E84661;" cx="377.7" cy="300.142" r="26.2"/>
<path style="fill:#CE1D4C;" d="M403.9,300.141c0,14.468-11.73,26.197-26.198,26.197c-9.322,0-17.517-4.878-22.146-12.215
	c1.622,0.32,3.286,0.486,5.002,0.486c14.468,0,26.197-11.73,26.197-26.198c0-5.136-1.478-9.931-4.041-13.982
	C394.785,276.765,403.9,287.388,403.9,300.141z"/>
<circle style="fill:#E84661;" cx="256" cy="300.142" r="45.17"/>
<path style="fill:#CE1D4C;" d="M301.17,300.14c0,24.947-20.224,45.171-45.171,45.171c-15.212,0-28.667-7.523-36.852-19.036
	c3.41,0.837,6.986,1.271,10.655,1.271c24.947,0,45.171-20.224,45.171-45.182c0-9.735-3.08-18.746-8.309-26.125
	C286.464,261.035,301.17,278.872,301.17,300.14z"/>
<path style="fill:#FC914A;" d="M506.829,432.085H5.167c-2.854,0-5.167-2.313-5.167-5.167v-33.663c0-2.854,2.313-5.167,5.167-5.167
	h501.662c2.854,0,5.167,2.313,5.167,5.167v33.663C511.997,429.772,509.683,432.085,506.829,432.085z"/>
<path style="fill:#EA7636;" d="M512,393.252v33.669c0,2.852-2.315,5.167-5.167,5.167H462.84v-44.004h43.993
	C509.685,388.085,512,390.4,512,393.252z"/>
<circle style="fill:#E84661;" cx="482.09" cy="171.372" r="17.12"/>
<path style="fill:#CE1D4C;" d="M499.212,171.382c0,9.456-7.668,17.114-17.124,17.114c-7.089,0-13.176-4.299-15.77-10.438
	c0.599,0.072,1.209,0.103,1.819,0.103c9.456,0,17.124-7.658,17.124-17.114c0-2.377-0.486-4.63-1.354-6.686
	C492.505,155.26,499.212,162.535,499.212,171.382z"/>
<circle style="fill:#E84661;" cx="29.909" cy="171.372" r="17.12"/>
<path style="fill:#CE1D4C;" d="M47.031,171.385c0,9.456-7.668,17.114-17.124,17.114c-7.089,0-13.176-4.299-15.77-10.438
	c0.599,0.072,1.209,0.103,1.819,0.103c9.456,0,17.124-7.658,17.124-17.114c0-2.377-0.486-4.63-1.354-6.686
	C40.324,155.263,47.031,162.538,47.031,171.385z"/>
<circle style="fill:#E84661;" cx="256" cy="106.112" r="26.2"/>
<path style="fill:#CE1D4C;" d="M282.196,106.113c0,14.468-11.729,26.197-26.197,26.197c-6.759,0-12.918-2.563-17.558-6.759
	c13.817-0.734,24.782-12.164,24.782-26.156c0-7.709-3.328-14.644-8.639-19.439c0.465-0.031,0.94-0.041,1.416-0.041
	C270.466,79.916,282.196,91.645,282.196,106.113z"/>
</svg>
