<?xml version="1.0" encoding="iso-8859-1"?>
<!-- Source: https://www.flaticon.com/free-icon/thinking_907115#term=thinking%20bubble&page=1&position=12 -->
<svg version="1.1" id="Capa_1" xmlns="http://www.w3.org/2000/svg" xmlns:xlink="http://www.w3.org/1999/xlink" x="0px" y="0px"
	 viewBox="0 0 512 512" style="enable-background:new 0 0 512 512;" xml:space="preserve">
<!-- Partie gauche du nuage -->
<path style="fill:#72A3FC;" d="M484.512,143.416c-15.228-17.399-35.387-29.555-57.572-34.89
	C411.459,52.307,360.013,12.5,300.91,12.5c-34.072,0-66.456,13.224-90.709,36.675c-14.924-8.461-31.718-12.88-49.262-12.88
	c-51.057,0-93.635,38.84-99.477,88.547c-16.17,6.832-30.547,17.963-41.2,32.052C7.007,174.424,0,195.313,0,217.301
	c0,55.28,44.932,100.254,100.159,100.254c14.055,0,27.91-2.987,40.71-8.718c27.378,31.324,67.337,49.687,109.289,49.687
	c38.442,0,75.062-15.271,102.246-42.275c15.148,7.44,31.744,11.327,48.647,11.327c61.177,0,110.948-49.819,110.948-111.053
	C512,189.633,502.238,163.67,484.512,143.416z"/>
<!-- Partie droite du nuage -->
<path style="fill:#2892FC;" d="M484.512,143.416c-15.228-17.399-35.387-29.555-57.572-34.89
	C411.459,52.307,360.013,12.5,300.91,12.5c-15.525,0-30.696,2.754-44.91,7.962v337.934c36.295-1.464,70.601-16.515,96.404-42.147
	c15.148,7.439,31.744,11.327,48.647,11.327c61.177,0,110.948-49.819,110.948-111.054C512,189.633,502.238,163.67,484.512,143.416z"
	/>
<!-- Bulles -->
<path style="fill:#DFE4EA;" d="M354,349.49c-30.327,0-55,24.675-55,55.004c0,30.329,24.673,55.004,55,55.004s55-24.675,55-55.004
	C409,374.164,384.327,349.49,354,349.49z"/>
<path style="fill:#DFE4EA;" d="M467,409.494c-24.813,0-45,20.188-45,45.003s20.187,45.003,45,45.003s45-20.188,45-45.003
		S491.813,409.494,467,409.494z"/>
</svg>
