<?xml version="1.0" encoding="iso-8859-1"?>
<!-- Source: https://www.flaticon.com/free-icon/meeting-point_655682#term=meet&page=2&position=84 -->
<svg version="1.1" id="Capa_1" xmlns="http://www.w3.org/2000/svg" xmlns:xlink="http://www.w3.org/1999/xlink" x="0px" y="0px"
	 viewBox="0 0 511.999 511.999" style="enable-background:new 0 0 511.999 511.999;" xml:space="preserve">
<path style="fill:#21cc98;" d="M256,180c-41.4,0-76,34.6-76,76s34.6,76,76,76s76-34.6,76-76S297.4,180,256,180z"/>
<path style="fill:#21cc98;" d="M507.499,486.5L486.5,507.499c-6,6-15.601,6-21.301,0c-28.801-28.499-50.7-50.7-79.501-79.199
	l-28.2,28.2c-4.199,4.199-10.499,5.4-16.199,2.999c-5.7-2.1-9.3-7.5-9.3-13.801V347c0-4.2,1.8-7.8,4.2-10.8
	c2.999-2.401,6.599-4.2,10.8-4.2h98.699c6.301,0,11.7,3.6,13.801,9.3c2.401,5.7,1.199,12.001-2.999,16.199l-28.2,28.2
	c28.499,28.801,50.7,50.7,79.199,79.501C513.499,470.9,513.499,480.5,507.499,486.5z"/>
<path style="fill:#b0f2de;" d="M180,347v98.699c0,6.301-3.6,11.7-9.3,13.801c-5.7,2.401-12.001,1.199-16.199-2.999l-28.2-28.2
	C97.5,456.799,75.6,479,46.799,507.499c-5.7,6-15.3,6-21.301,0L4.5,486.5c-6-6-6-15.601,0-21.301
	c28.499-28.801,50.7-50.7,79.199-79.501l-28.2-28.2C51.3,353.3,50.099,347,52.5,341.299c2.1-5.7,7.5-9.3,13.801-9.3H165
	c4.2,0,7.8,1.8,10.8,4.2C178.2,339.199,180,342.799,180,347z"/>
<path style="fill:#21cc98;" d="M507.499,46.799C479,75.6,456.799,97.5,428.3,126.3l28.2,28.2c4.199,4.199,5.4,10.499,2.999,16.199
	c-2.1,5.7-7.5,9.3-13.801,9.3H347c-4.2,0-7.8-1.8-10.8-4.2c-2.401-2.999-4.2-6.599-4.2-10.8V66.3c0-6.301,3.6-11.7,9.3-13.801
	c5.7-2.401,12.001-1.199,16.199,2.999l28.2,28.2C414.5,55.2,436.399,32.999,465.2,4.5c5.7-6,15.3-6,21.301,0L507.5,25.499
	C513.499,31.499,513.499,41.099,507.499,46.799z"/>
<path style="fill:#b0f2de;" d="M180,66.3V165c0,4.2-1.8,7.8-4.2,10.8c-3,2.4-6.6,4.2-10.8,4.2H66.3c-6.301,0-11.7-3.6-13.801-9.3
	c-2.401-5.7-1.199-12.001,2.999-16.199l28.2-28.2C55.2,97.5,32.999,75.6,4.5,46.799c-6-5.7-6-15.3,0-21.301L25.499,4.5
	c6-6,15.601-6,21.301,0c28.8,28.499,50.7,50.7,79.5,79.199l28.2-28.2c4.199-4.199,10.5-5.4,16.2-2.999C176.4,54.6,180,60,180,66.3z"
	/>
<path style="fill:#137758;" d="M332,256c0,41.4-34.6,76-76,76V180C297.4,180,332,214.599,332,256z"/>
</svg>
