<svg width='200' height='200' fill="#000000" xmlns="http://www.w3.org/2000/svg" xmlns:xlink="http://www.w3.org/1999/xlink" version="1.1" x="0px" y="0px" viewBox="0 0 100 100" style="enable-background:new 0 0 100 100;" xml:space="preserve"><path d="M88,31.1c0.5-0.5,0.6-1.3,0.4-1.9c-0.3-0.7-0.9-1.1-1.6-1.1H36.6L30.5,22c0.8-1.4,1.2-3,1-4.8  c-0.2-2.3-1.3-4.6-3.1-6.4c-1.8-1.8-4-3-6.3-3.3c-1.8-0.3-3.5,0-4.9,0.8l-2.6-2.7c-0.7-0.7-1.8-0.7-2.5,0c-0.7,0.7-0.7,1.8,0,2.5  l2.6,2.7c-1.9,3.2-1.1,7.9,2.1,11.3c1.8,1.8,4,3,6.3,3.3c0.4,0.1,0.8,0.1,1.3,0.1c1.3,0,2.6-0.3,3.6-0.9l3.6,3.6H23  c-0.7,0-1.4,0.4-1.6,1.1c-0.3,0.7-0.1,1.4,0.4,1.9L53,63.9v27.5H35.7c-1,0-1.8,0.8-1.8,1.8c0,1,0.8,1.8,1.8,1.8h38.2  c1,0,1.8-0.8,1.8-1.8c0-1-0.8-1.8-1.8-1.8H56.6V63.9L88,31.1z M23.6,21.8c-1.5-0.2-3-1-4.2-2.3c-2.4-2.4-2.9-5.9-1.1-7.7  c0.7-0.6,1.6-1,2.6-1c0.2,0,0.5,0,0.7,0.1c1.5,0.2,3,1,4.2,2.3c1.2,1.3,2,2.8,2.1,4.3c0.1,1.4-0.2,2.5-1,3.3  C26.1,21.7,24.9,22,23.6,21.8z M62.9,44.1l-9.4,9.8c-0.7,0.7-0.7,1.8,0.1,2.5c0.3,0.3,0.8,0.5,1.2,0.5c0.5,0,0.9-0.2,1.3-0.6  l11.7-12.3h2.8L54.8,60.6L39.1,44.1H62.9z M82.5,31.6L74,40.6h-2.8l3.2-3.3c0.7-0.7,0.7-1.8-0.1-2.5c-0.7-0.7-1.8-0.7-2.5,0.1  l-5.5,5.8H49.1l-8.9-8.9H82.5z M35.1,31.6l8.9,8.9h-8.4l-8.5-8.9H35.1z"/></svg>