<?xml version="1.0" encoding="iso-8859-1"?>
<!-- Source: https://www.flaticon.com/free-icon/quality_907124 -->
<svg version="1.1" id="Capa_1" xmlns="http://www.w3.org/2000/svg" xmlns:xlink="http://www.w3.org/1999/xlink" x="0px" y="0px"
	 viewBox="0 0 511.999 511.999" style="enable-background:new 0 0 511.999 511.999;" xml:space="preserve">
<!-- Partie gauche des rubans -->
<path style="fill:#72A3FC;" d="M245.686,495.469l-22.202-216.265c-0.714-6.953-6.143-12.492-13.09-13.355l-41.997-5.219
	c-5.948-0.748-11.773,2.125-14.81,7.288L51.069,442.188c-3.17,5.389-2.661,12.176,1.277,17.034
	c3.937,4.856,10.479,6.769,16.42,4.796l82.188-27.297l69.023,70.744c4.421,4.531,11.282,5.848,17.123,3.122
	C242.893,507.885,246.338,501.819,245.686,495.469z"/>
<!-- Partie droite des rubans -->
<path style="fill:#2892FC;" d="M460.931,442.188l-102.517-174.27c-3.037-5.162-8.859-8.038-14.81-7.288l-41.997,5.219
	c-6.947,0.863-12.376,6.402-13.09,13.355l-22.202,216.265c-0.652,6.35,2.793,12.416,8.585,15.118
	c5.862,2.735,12.719,1.393,17.123-3.122l69.023-70.744l82.188,27.297c5.94,1.975,12.482,0.061,16.42-4.796
	C463.592,454.364,464.101,447.577,460.931,442.188z"/>
<!-- Partie droite de la médaille externe -->
<path style="fill:#FAD557;" d="M419.414,157.101l-34.416-44.125l-6.919-55.509c-0.85-6.815-6.227-12.185-13.053-13.032l-55.599-6.91
	l-44.196-34.36c-5.428-4.221-13.033-4.219-18.462,0l-44.195,34.36l-55.599,6.909c-6.826,0.848-12.204,6.217-13.054,13.032
	l-6.92,55.51l-34.416,44.125c-4.227,5.419-4.227,13.013,0,18.432l34.416,44.125l6.919,55.51c0.85,6.815,6.227,12.185,13.054,13.032
	l55.599,6.909l44.195,34.361c2.714,2.11,5.972,3.165,9.231,3.165c3.259,0,6.517-1.055,9.231-3.165l44.195-34.361l55.599-6.909
	c6.826-0.848,12.204-6.217,13.054-13.032l6.92-55.51l34.416-44.125C423.641,170.114,423.641,162.52,419.414,157.101z"/>
<!-- Partie droite de la médaille externe -->
<path style="fill:#FCB12B;" d="M419.414,157.101l-34.416-44.125l-6.919-55.508c-0.849-6.815-6.227-12.185-13.053-13.032
	l-55.599-6.91l-44.196-34.36C262.517,1.054,259.258,0,256,0v332.635c3.259,0,6.517-1.055,9.231-3.165l44.195-34.361l55.599-6.909
	c6.826-0.848,12.204-6.217,13.054-13.032l6.92-55.51l34.416-44.125C423.641,170.114,423.641,162.52,419.414,157.101z"/>
<!-- Partie gauche de la bulle du centre -->
<path style="fill:#FDA429;" d="M256,105.921c-33.356,0-60.492,27.094-60.492,60.395s27.137,60.395,60.492,60.395
	s60.492-27.094,60.492-60.395S289.356,105.921,256,105.921z"/>
<!-- Partie droite de la bulle du centre -->
<path style="fill:#E28117;" d="M256,105.922v120.791c33.356,0,60.492-27.094,60.492-60.396S289.356,105.922,256,105.922z"/>
</svg>
