<?xml version="1.0" encoding="iso-8859-1"?>
<!-- Source: https://www.flaticon.com/free-icon/megaphone_907126 -->
<svg version="1.1" id="Capa_1" xmlns="http://www.w3.org/2000/svg" xmlns:xlink="http://www.w3.org/1999/xlink" x="0px" y="0px"
	 viewBox="0 0 512 512" style="enable-background:new 0 0 512 512;" xml:space="preserve">
<path style="fill:#747D8B;" d="M114.655,281.129H56.677c-8.283,0-14.999,6.729-14.999,15.028v129.812
	c0,7.091,4.946,13.216,11.866,14.697c6.92,1.485,13.934-2.089,16.823-8.558l57.978-129.812
	C132.781,292.364,125.512,281.129,114.655,281.129z"/>
<g>
	<path style="fill:#FAD557;" d="M424.031,398.16c-5.858-5.869-5.859-15.385-0.003-21.254c77.285-77.457,77.296-202.781,0-280.251
		c-5.856-5.87-5.855-15.386,0.003-21.254s15.354-5.867,21.212,0.003c89.002,89.206,89.017,233.535,0,322.754
		C439.387,404.024,429.891,404.029,424.031,398.16z"/>
	<path style="fill:#FAD557;" d="M367.603,341.618c-5.857-5.871-5.855-15.386,0.004-21.253c46.187-46.261,46.202-120.896,0-167.168
		c-5.859-5.869-5.861-15.384-0.005-21.254c5.857-5.87,15.353-5.871,21.212-0.005c57.917,58.008,57.93,151.663,0,209.684
		C382.958,347.488,373.46,347.491,367.603,341.618z"/>
</g>
<path style="fill:#F9F9F9;" d="M255.17,176.281c-8.283,0-14.999,6.729-14.999,15.028v89.87c0,8.3,6.715,15.028,14.999,15.028
	c32.998,0,59.844-26.9,59.844-59.963C315.014,203.18,288.168,176.281,255.17,176.281z"/>
<path style="fill:#DFE4EA;" d="M240.172,236.244v44.936c0,8.3,6.715,15.028,14.998,15.028c32.998,0,59.844-26.899,59.844-59.963l0,0
	h-74.842V236.244z"/>
<path style="fill:#FD6B82;" d="M263.558,115.074c-4.133-2.795-9.382-3.346-14.004-1.476l-117.882,47.706H14.999
	C6.715,161.303,0,168.031,0,176.331v119.826c0,8.3,6.715,15.028,14.999,15.028h116.673l117.882,47.706
	c4.536,1.836,9.792,1.37,14.004-1.475c4.133-2.794,6.611-7.463,6.611-12.459V127.532
	C270.169,122.536,267.691,117.867,263.558,115.074z"/>
<g>
	<path style="fill:#FCB12B;" d="M481.99,236.244c0.136,50.877-19.182,101.795-57.962,140.662c-5.856,5.87-5.855,15.386,0.003,21.254
		c5.86,5.87,15.356,5.865,21.212-0.003c44.643-44.745,66.888-103.35,66.751-161.913L481.99,236.244L481.99,236.244z"/>
	<path style="fill:#FCB12B;" d="M402.247,236.244c0.137,30.406-11.408,60.853-34.64,84.121c-5.859,5.867-5.861,15.382-0.004,21.253
		c5.857,5.873,15.355,5.87,21.211,0.004c29.1-29.146,43.574-67.284,43.436-105.378L402.247,236.244L402.247,236.244z"/>
</g>
<path style="fill:#FC495C;" d="M0,236.244v59.913c0,8.3,6.715,15.028,14.999,15.028h116.673l117.882,47.706
	c4.536,1.836,9.792,1.37,14.004-1.476c4.133-2.794,6.611-7.463,6.611-12.459V236.244H0z"/>
<g>
</g>
<g>
</g>
<g>
</g>
<g>
</g>
<g>
</g>
<g>
</g>
<g>
</g>
<g>
</g>
<g>
</g>
<g>
</g>
<g>
</g>
<g>
</g>
<g>
</g>
<g>
</g>
<g>
</g>
</svg>
